<svg width="32" height="32" viewBox="0 0 32 32" fill="none" xmlns="http://www.w3.org/2000/svg">
<path d="M21.3339 26.1333C20.9339 26.1333 20.6672 25.8667 20.5339 25.4667L17.2005 9.86667L14.1339 20.2667C14.0005 20.5333 13.7339 20.8 13.4672 20.8C13.0672 20.8 12.8005 20.6667 12.6672 20.2667L9.33385 12.5333L7.46719 16.2667C7.33385 16.5333 7.06719 16.6667 6.80052 16.6667H2.66719C2.26719 16.6667 1.86719 16.2667 1.86719 15.8667C1.86719 15.4667 2.26719 15.0667 2.66719 15.0667H6.13385L8.53385 10.1333C8.80052 10 9.06719 9.86667 9.33385 9.86667C9.60052 9.86667 9.86719 10 10.0005 10.4L13.0672 17.7333L16.4005 6.53333C16.5339 6.13333 16.8005 6 17.2005 6C17.6005 6 17.8672 6.26667 18.0005 6.66667L21.6005 22.6667L24.6672 15.6C24.8005 15.3333 25.0672 15.0667 25.4672 15.0667H29.4672C29.8672 15.0667 30.2672 15.4667 30.2672 15.8667C30.2672 16.2667 29.8672 16.6667 29.4672 16.6667H26.0005L22.2672 25.4667C22.0005 26 21.6005 26.1333 21.3339 26.1333Z" fill="#F3AF00"/>
</svg>
